<?xml version="1.0" encoding="utf-8"?>
<!-- Generator: Adobe Illustrator 24.1.2, SVG Export Plug-In . SVG Version: 6.00 Build 0)  -->
<svg version="1.1" id="Layer_1" xmlns:serif="http://www.serif.com/"
	 xmlns="http://www.w3.org/2000/svg" xmlns:xlink="http://www.w3.org/1999/xlink" x="0px" y="0px" viewBox="0 0 25 25"
	 style="enable-background:new 0 0 25 25;" xml:space="preserve">
<style type="text/css">
	.st0{fill:none;}
	.st1{fill-rule:evenodd;clip-rule:evenodd;}
</style>
<rect x="-37.5" y="-50" serif:id="Page 56" class="st0" width="100" height="100">
</rect>
<path class="st1" d="M12.5,22.9c-0.1,0-0.2-0.1-0.4-0.1L3.8,18c-0.3-0.2-0.4-0.3-0.4-0.7l0-9.6c0-0.4,0.1-0.5,0.4-0.7l8.3-4.8
	c0.1-0.1,0.2-0.1,0.4-0.1l0.1,0c0.1,0,0.2,0,0.3,0.1L21.2,7c0.3,0.2,0.4,0.3,0.4,0.7l0,9.6c0,0.4-0.1,0.5-0.4,0.7l-8.3,4.8
	C12.8,22.9,12.6,22.9,12.5,22.9z M12.5,21.1l7.5-4.3l0-8.6l-7.5-4.3L5,8.2l0,8.6L12.5,21.1z"/>
<path class="st1" d="M7.5,8.8c0.1,0,0.1,0,0.2,0c0.2,0.1,0.4,0.3,0.4,0.5l0,6.4c0,0.1,0,0.2-0.1,0.3c-0.2,0.4-1.2,0.4-1.2-0.3l0-6.4
	c0-0.1,0-0.1,0-0.2c0.1-0.2,0.3-0.3,0.5-0.4C7.5,8.8,7.5,8.8,7.5,8.8z"/>
<path class="st1" d="M11.9,6.1C12,6,12,5.9,12,5.9c0.2-0.1,0.4-0.2,0.6-0.1l5.5,3.2c0.1,0.1,0.1,0.1,0.2,0.2
	c0.2,0.4-0.3,1.2-0.8,0.9L12,6.9c-0.1-0.1-0.1-0.1-0.1-0.1c-0.1-0.2-0.2-0.4-0.1-0.6C11.9,6.1,11.9,6.1,11.9,6.1z"/>
<path class="st1" d="M18.4,15.1c0,0.1,0,0.1,0.1,0.2c0,0.2-0.1,0.4-0.3,0.6l-5.5,3.2c-0.1,0.1-0.2,0.1-0.3,0.1
	c-0.5,0-0.9-0.8-0.4-1.1l5.5-3.2c0.1-0.1,0.1-0.1,0.2-0.1c0.2,0,0.4,0.1,0.6,0.3C18.4,15.1,18.4,15.1,18.4,15.1z"/>
</svg>
