<svg xmlns="http://www.w3.org/2000/svg" id="draw.id" overflow="visible" v:layers="{&quot;default&quot;:{&quot;name&quot;:&quot;Default&quot;,&quot;print&quot;:1,&quot;display&quot;:1,&quot;publish&quot;:1}}" v:ver="3" x="500.5" y="500.5" v:stencils="{&quot;0&quot;:{&quot;id&quot;:&quot;stencil_50&quot;,&quot;expand&quot;:1,&quot;show_name&quot;:1},&quot;1&quot;:{&quot;id&quot;:&quot;stencil_65&quot;,&quot;expand&quot;:1,&quot;show_name&quot;:1}}" xmlns:v="http://vecta.io"><style xmlns="http://www.w3.org/1999/xhtml"><![CDATA[#draw\.id{stroke:#000;stroke-linecap:round;stroke-linejoin:round;fill:#fff;fill-rule:evenodd;font-family:Roboto;font-size:14px;text-anchor:middle}#draw\.id text{stroke:none}]]></style><defs><style type="text/css">@import url("https://fonts.googleapis.com/css?family=Roboto+Condensed:400,400i,700,700i"); @import url("https://fonts.googleapis.com/css?family=Roboto:400,400i,700,700i"); @import url("https://fonts.googleapis.com/css?family=Cousine:400,400i,700,700i"); @import url("https://fonts.googleapis.com/css?family=Anonymous+Pro:400,400i,700,700i"); @import url("https://fonts.googleapis.com/css?family=Lato:400,400i,700,700i"); @import url("https://fonts.googleapis.com/css?family=Open+Sans:400,400i,700,700i");</style></defs><title xmlns="http://www.w3.org/1999/xhtml">Untitled drawing</title><desc xmlns="http://www.w3.org/1999/xhtml"></desc><svg id="kdtyt5065" width="300" height="300" viewBox="0 0 25 25" overflow="visible" v:setup="{&quot;paper&quot;:&quot;CUSTOM&quot;,&quot;unit&quot;:&quot;px&quot;,&quot;scale&quot;:{&quot;from&quot;:&quot;1&quot;,&quot;to&quot;:&quot;1&quot;},&quot;width&quot;:&quot;25 px&quot;,&quot;height&quot;:&quot;25px&quot;,&quot;margin&quot;:{&quot;top&quot;:&quot;0&quot;,&quot;bottom&quot;:&quot;0&quot;,&quot;left&quot;:&quot;0&quot;,&quot;right&quot;:&quot;0&quot;},&quot;orient&quot;:0}"><g id="ke13keaa11d" transform="translate(10.22000000000001 10.22000000000001)" class=""><path d="M 0 2.2799999999999994 C 0 1.01688 1.0168799999999998 0 2.279999999999999 0 C 3.5431199999999987 0 4.559999999999998 1.01688 4.559999999999998 2.2799999999999994 C 4.559999999999998 3.54312 3.5431199999999987 4.559999999999999 2.279999999999999 4.559999999999999 C 1.0168799999999998 4.559999999999999 0 3.54312 0 2.2799999999999994 Z" stroke="none" stroke-linejoin="miter" stroke-linecap="butt" fill="#000000" fill-rule="nonzero" stroke-width="0"/></g><g id="ke13keau11e" transform="translate(3 3)" class=""><path d="M 6.0199599999999975 0 L 0.8400171428571427 0 C 0.3799999999999999 0 0 0.3799999999999999 0 0.8400171428571429 L 0 6.019960000000002 C 0 6.479977142857142 0.3799999999999999 6.859977142857144 0.8400171428571427 6.859977142857144 C 1.3000342857142853 6.859977142857144 1.6800342857142854 6.479977142857142 1.6800342857142854 6.019960000000002 L 1.6800342857142854 1.6800342857142858 L 5.9999828571428555 1.6800342857142858 C 6.459999999999998 1.6800342857142858 6.84 1.3000342857142866 6.84 0.8400171428571429 C 6.84 0.3799999999999999 6.479977142857141 0 6.0199599999999975 0 Z" stroke="none" stroke-linejoin="miter" stroke-linecap="butt" fill="#000000" fill-rule="nonzero" stroke-width="0"/></g><g id="ke13keax11f" transform="translate(15.140022857142858 15.140022857142856)" class=""><path d="M 6.0199599999999975 0 C 5.5599428571428575 0 5.180051428571426 0.38 5.180051428571426 0.8400171428571431 L 5.180051428571426 5.1599657142857165 L 0.8400171428571428 5.1599657142857165 C 0.38000000000000006 5.1599657142857165 0 5.539965714285715 0 5.999982857142857 C 0 6.46 0.38000000000000006 6.8400000000000025 0.8400171428571428 6.8400000000000025 L 6.0199599999999975 6.8400000000000025 C 6.479977142857142 6.8400000000000025 6.859977142857143 6.46 6.859977142857143 5.999982857142857 L 6.859977142857143 0.8400171428571431 C 6.859977142857143 0.38 6.479977142857142 0 6.0199599999999975 0 Z" stroke="none" stroke-linejoin="miter" stroke-linecap="butt" fill="#000000" fill-rule="nonzero" stroke-width="0"/></g><g id="ke13keb111g" transform="translate(3 15.140022857142855)" class=""><path d="M 6.0199599999999975 5.179942857142859 L 1.6800342857142856 5.179942857142859 L 1.6800342857142856 0.8400171428571429 C 1.6800342857142856 0.3799999999999999 1.3000342857142864 0 0.8400171428571428 0 C 0.38000000000000006 0 0 0.3799999999999999 0 0.8400171428571429 L 0 6.019960000000002 C 0 6.479977142857142 0.38000000000000006 6.859977142857144 0.8400171428571428 6.859977142857144 L 6.0199599999999975 6.859977142857144 C 6.479977142857142 6.859977142857144 6.859977142857143 6.479977142857142 6.859977142857143 6.019960000000002 C 6.859977142857143 5.559942857142858 6.479977142857142 5.179942857142859 6.0199599999999975 5.179942857142859 Z" stroke="none" stroke-linejoin="miter" stroke-linecap="butt" fill="#000000" fill-rule="nonzero" stroke-width="0"/></g><g id="ke13keb411h" transform="translate(15.140022857142853 3)" class=""><path d="M 6.019960000000002 0 L 0.8400171428571432 0 C 0.3800000000000002 0 0 0.38 0 0.8400171428571431 C 0 1.300034285714286 0.3800000000000002 1.6800342857142863 0.8400171428571432 1.6800342857142863 L 5.159965714285717 1.6800342857142863 L 5.159965714285717 5.999982857142857 C 5.159965714285717 6.46 5.539965714285716 6.8400000000000025 5.999982857142859 6.8400000000000025 C 6.460000000000004 6.8400000000000025 6.8400000000000025 6.46 6.8400000000000025 5.999982857142857 L 6.8400000000000025 0.8400171428571431 C 6.859977142857146 0.38 6.479977142857146 0 6.019960000000002 0 Z" stroke="none" stroke-linejoin="miter" stroke-linecap="butt" fill="#000000" fill-rule="nonzero" stroke-width="0"/></g></svg></svg>