<svg xmlns="http://www.w3.org/2000/svg" overflow="visible" x="500.5" y="500.5"><defs><style>@import url("https://fonts.googleapis.com/css?family=Roboto+Condensed:400,400i,700,700i"); @import url("https://fonts.googleapis.com/css?family=Roboto:400,400i,700,700i"); @import url("https://fonts.googleapis.com/css?family=Cousine:400,400i,700,700i"); @import url("https://fonts.googleapis.com/css?family=Anonymous+Pro:400,400i,700,700i"); @import url("https://fonts.googleapis.com/css?family=Lato:400,400i,700,700i"); @import url("https://fonts.googleapis.com/css?family=Open+Sans:400,400i,700,700i");</style></defs><svg width="300" height="300" viewBox="0 0 25 25" overflow="visible"><path d="M10.22 12.5c0-1.26 1.02-2.28 2.28-2.28s2.28 1.02 2.28 2.28-1.02 2.28-2.28 2.28-2.28-1.02-2.28-2.28zM9.02 3H3.84c-.46 0-.84.38-.84.84v5.18c0 .46.38.84.84.84s.84-.38.84-.84V4.68H9c.46 0 .84-.38.84-.84S9.48 3 9.02 3zm12.14 12.14c-.46 0-.84.38-.84.84v4.32h-4.34c-.46 0-.84.38-.84.84s.38.84.84.84h5.18c.46 0 .84-.38.84-.84v-5.16c0-.46-.38-.84-.84-.84zM9.02 20.32H4.68v-4.34c0-.46-.38-.84-.84-.84s-.84.38-.84.84v5.18c0 .46.38.84.84.84h5.18c.46 0 .84-.38.84-.84s-.38-.84-.84-.84zM21.16 3h-5.18c-.46 0-.84.38-.84.84s.38.84.84.84h4.32V9c0 .46.38.84.84.84s.84-.38.84-.84V3.84c.02-.46-.36-.84-.82-.84z"/></svg></svg>