<svg id="draw.id" overflow="visible" v:layers="{&quot;default&quot;:{&quot;name&quot;:&quot;Default&quot;,&quot;print&quot;:1,&quot;display&quot;:1,&quot;publish&quot;:1}}" v:ver="3" x="500.5" xmlns="http://www.w3.org/2000/svg" xmlns:v="http://vecta.io" xmlns:xlink="http://www.w3.org/1999/xlink" y="500.5" v:stencils="{&quot;0&quot;:{&quot;id&quot;:&quot;stencil_65&quot;,&quot;expand&quot;:0,&quot;show_name&quot;:1}}"><style xmlns="http://www.w3.org/1999/xhtml"><![CDATA[#draw\.id{stroke:#000;stroke-linecap:round;stroke-linejoin:round;fill:#fff;fill-rule:evenodd;font-family:Roboto;font-size:14px;text-anchor:middle}#draw\.id text{stroke:none}]]></style><defs><style type="text/css">@import url("https://fonts.googleapis.com/css?family=Roboto+Condensed:400,400i,700,700i"); @import url("https://fonts.googleapis.com/css?family=Roboto:400,400i,700,700i"); @import url("https://fonts.googleapis.com/css?family=Cousine:400,400i,700,700i"); @import url("https://fonts.googleapis.com/css?family=Anonymous+Pro:400,400i,700,700i"); @import url("https://fonts.googleapis.com/css?family=Lato:400,400i,700,700i"); @import url("https://fonts.googleapis.com/css?family=Open+Sans:400,400i,700,700i");</style></defs><title xmlns="http://www.w3.org/1999/xhtml">Untitled drawing</title><desc xmlns="http://www.w3.org/1999/xhtml"></desc><svg height="24" id="kdtyt5065" overflow="visible" v:setup="{&quot;paper&quot;:&quot;CUSTOM&quot;,&quot;unit&quot;:&quot;px&quot;,&quot;scale&quot;:{&quot;from&quot;:&quot;1&quot;,&quot;to&quot;:&quot;1&quot;},&quot;width&quot;:&quot;24 px&quot;,&quot;height&quot;:&quot;24px&quot;,&quot;margin&quot;:{&quot;top&quot;:&quot;0&quot;,&quot;bottom&quot;:&quot;0&quot;,&quot;left&quot;:&quot;0&quot;,&quot;right&quot;:&quot;0&quot;},&quot;orient&quot;:0}" viewBox="0 0 24 24" width="24"><g id="ke13keaa11d" transform="translate(10.15 10.15)" class=""><path d="M 0 2.1 C 0 0.9366 0.9366 0 2.1 0 C 3.2634 0 4.2 0.9366 4.2 2.1 C 4.2 3.2634 3.2634 4.2 2.1 4.2 C 0.9366 4.2 0 3.2634 0 2.1 Z" stroke="none" stroke-linejoin="miter" stroke-linecap="butt" fill="#000000" fill-rule="nonzero" stroke-width="0"/></g><g id="ke13keau11e" transform="translate(3.5 3.5)" class=""><path d="M 5.5447 0 L 0.7737 0 C 0.35 0 0 0.35 0 0.7737 L 0 5.5447 C 0 5.9684 0.35 6.3184 0.7737 6.3184 C 1.1974 6.3184 1.5474 5.9684 1.5474 5.5447 L 1.5474 1.5474 L 5.5263 1.5474 C 5.95 1.5474 6.3 1.1974 6.3 0.7737 C 6.3 0.35 5.9684 0 5.5447 0 Z" stroke="none" stroke-linejoin="miter" stroke-linecap="butt" fill="#000000" fill-rule="nonzero" stroke-width="0"/></g><g id="ke13keax11f" transform="translate(14.6816 14.6816)" class=""><path d="M 5.5447 0 C 5.121 0 4.7711 0.35 4.7711 0.7737 L 4.7711 4.7526 L 0.7737 4.7526 C 0.35 4.7526 0 5.1026 0 5.5263 C 0 5.95 0.35 6.3 0.7737 6.3 L 5.5447 6.3 C 5.9684 6.3 6.3184 5.95 6.3184 5.5263 L 6.3184 0.7737 C 6.3184 0.35 5.9684 0 5.5447 0 Z" stroke="none" stroke-linejoin="miter" stroke-linecap="butt" fill="#000000" fill-rule="nonzero" stroke-width="0"/></g><g id="ke13keb111g" transform="translate(3.5 14.6816)" class=""><path d="M 5.5447 4.771 L 1.5474 4.771 L 1.5474 0.7737 C 1.5474 0.35 1.1974 0 0.7737 0 C 0.35 0 0 0.35 0 0.7737 L 0 5.5447 C 0 5.9684 0.35 6.3184 0.7737 6.3184 L 5.5447 6.3184 C 5.9684 6.3184 6.3184 5.9684 6.3184 5.5447 C 6.3184 5.121 5.9684 4.771 5.5447 4.771 Z" stroke="none" stroke-linejoin="miter" stroke-linecap="butt" fill="#000000" fill-rule="nonzero" stroke-width="0"/></g><g id="ke13keb411h" transform="translate(14.6816 3.5)" class=""><path d="M 5.5447 0 L 0.7737 0 C 0.35 0 0 0.35 0 0.7737 C 0 1.1974 0.35 1.5474 0.7737 1.5474 L 4.7526 1.5474 L 4.7526 5.5263 C 4.7526 5.95 5.1026 6.3 5.5263 6.3 C 5.95 6.3 6.3 5.95 6.3 5.5263 L 6.3 0.7737 C 6.3184 0.35 5.9684 0 5.5447 0 Z" stroke="none" stroke-linejoin="miter" stroke-linecap="butt" fill="#000000" fill-rule="nonzero" stroke-width="0"/></g></svg></svg>