<?xml version="1.0" encoding="utf-8"?>
<!-- Generator: Adobe Illustrator 24.1.2, SVG Export Plug-In . SVG Version: 6.00 Build 0)  -->
<svg version="1.1" id="kdtyt5065" xmlns:v="http://vecta.io"
	 xmlns="http://www.w3.org/2000/svg" xmlns:xlink="http://www.w3.org/1999/xlink" x="0px" y="0px" viewBox="0 0 16 16"
	 style="enable-background:new 0 0 16 16;" xml:space="preserve">
<desc  xmlns="http://www.w3.org/1999/xhtml"></desc>
<g id="ke1ficy0fy" transform="translate(4 4)">
	<path d="M0.2,10.7c-0.5,0-1-0.2-1.3-0.5l-1.8-1.9C-3.6,7.7-4,6.8-4,5.8S-3.6,4-2.9,3.4L3.5-3C4.1-3.6,5-4,5.8-4s1.8,0.4,2.4,1
		l2.7,2.7c1.4,1.3,1.4,3.5,0.2,4.9l-5.6,5.6c-0.4,0.4-0.8,0.5-1.3,0.5H0.2L0.2,10.7z M-1.8,4.7C-2.2,5-2.3,5.4-2.3,5.9
		c0,0.4,0.2,0.9,0.5,1.1L0,8.8C0.1,8.9,0.3,9,0.4,9H4c0.2,0,0.3-0.1,0.4-0.2l0.5-0.5l-5.2-5.2L-1.8,4.7z M6.1,7.1l3.8-3.8
		c0.6-0.7,0.6-1.8-0.1-2.4L7-1.8C6.7-2.1,6.3-2.2,5.7-2.2S4.9-2.1,4.5-1.8L0.9,2L6.1,7.1z"/>
</g>
</svg>
