<?xml version="1.0" encoding="utf-8"?>
<!-- Generator: Adobe Illustrator 24.1.2, SVG Export Plug-In . SVG Version: 6.00 Build 0)  -->
<svg version="1.1" id="kdtyt5065" xmlns:v="http://vecta.io"
	 xmlns="http://www.w3.org/2000/svg" xmlns:xlink="http://www.w3.org/1999/xlink" x="0px" y="0px" viewBox="0 0 16 16"
	 style="enable-background:new 0 0 16 16;" xml:space="preserve">
<desc  xmlns="http://www.w3.org/1999/xhtml"></desc>
<g id="ke1ficy0fy" transform="translate(4 4)">
	<path d="M0.3,11.1c-0.5,0-0.9-0.2-1.3-0.5l-1.8-1.9c-0.7-0.6-1-1.4-1-2.4s0.3-1.8,1-2.4l6.2-6.2c0.6-0.6,1.4-0.9,2.3-0.9
		s1.7,0.3,2.3,0.9l2.6,2.6c1.4,1.3,1.4,3.4,0.2,4.8l-5.4,5.4c-0.3,0.3-0.8,0.5-1.3,0.5H0.3L0.3,11.1z M-1.6,5.3
		C-2,5.5-2.1,6-2.1,6.5c0,0.4,0.2,0.9,0.5,1.1l1.8,1.7c0.1,0.1,0.3,0.2,0.3,0.2H4c0.2,0,0.3-0.1,0.3-0.2l0.5-0.5l-5-5L-1.6,5.3z
		 M6,7.7L9.7,4c0.6-0.7,0.6-1.7-0.1-2.3L6.9-1C6.6-1.3,6.2-1.4,5.7-1.4S4.8-1.3,4.5-1L1,2.6L6,7.7z"/>
</g>
</svg>
