<?xml version="1.0" encoding="utf-8"?>
<!-- Generator: Adobe Illustrator 24.1.2, SVG Export Plug-In . SVG Version: 6.00 Build 0)  -->
<svg version="1.1" id="kdtyt5065" xmlns:v="http://vecta.io"
	 xmlns="http://www.w3.org/2000/svg" xmlns:xlink="http://www.w3.org/1999/xlink" x="0px" y="0px" viewBox="0 0 25 25"
	 style="enable-background:new 0 0 25 25;" xml:space="preserve">
<desc  xmlns="http://www.w3.org/1999/xhtml"></desc>
<g id="ke1ficy0fy" transform="translate(4 4)">
	<path d="M13.1,1.4l3.1,3.1c1.4,1.3,1.5,3.6,0.1,5l0,0L10,16c-0.3,0.3-0.8,0.5-1.3,0.5H4.2c-0.5,0-0.9-0.2-1.3-0.5l-2.1-2.2
		c-0.7-0.6-1.1-1.6-1.1-2.6c0-1,0.4-1.9,1.1-2.6l7.3-7.3C9.4,0.1,11.8,0.1,13.1,1.4z M3.6,7.8L1.7,9.7c-0.4,0.4-0.7,1-0.7,1.6
		c0,0.6,0.2,1.2,0.7,1.6L3.7,15c0.2,0.2,0.4,0.3,0.6,0.3h4.1c0.2,0,0.5-0.1,0.6-0.3l0.8-0.8L3.6,7.8z M9,2.4L4.6,6.9l6.3,6.3
		l4.5-4.5c0.8-0.9,0.8-2.3-0.1-3.1l-3.1-3.1C11.3,1.6,9.8,1.6,9,2.4z"/>
</g>
</svg>
