<?xml version="1.0" encoding="utf-8"?>
<!-- Generator: Adobe Illustrator 24.1.2, SVG Export Plug-In . SVG Version: 6.00 Build 0)  -->
<svg version="1.1"
	 id="Layer_1" xmlns:cc="http://creativecommons.org/ns#" xmlns:dc="http://purl.org/dc/elements/1.1/" xmlns:rdf="http://www.w3.org/1999/02/22-rdf-syntax-ns#" xmlns:svg="http://www.w3.org/2000/svg"
	 xmlns="http://www.w3.org/2000/svg" xmlns:xlink="http://www.w3.org/1999/xlink" x="0px" y="0px" viewBox="0 0 25 25"
	 style="enable-background:new 0 0 25 25;" xml:space="preserve">
<style type="text/css">
	.st0{fill-rule:evenodd;clip-rule:evenodd;}
</style>
<path class="st0" d="M8.4,22.6c-0.3,0-0.5-0.1-0.7-0.3l-5.3-6.6c-0.2-0.2-0.2-0.5-0.2-0.7l1.8-8.2c0.1-0.3,0.2-0.5,0.5-0.6l7.6-3.7
	c0.1-0.1,0.2-0.1,0.3-0.1c0,0,0,0,0,0c0.2,0,0.3,0,0.4,0.1l7.6,3.7c0.2,0.1,0.4,0.3,0.5,0.6l1.8,8.2c0.1,0.3,0,0.5-0.2,0.7l-5.3,6.6
	c-0.2,0.2-0.4,0.3-0.7,0.3H8.4z M16.2,20.9l4.8-5.9l-1.7-7.4l-6.8-3.3L5.7,7.6L4,14.9l4.8,5.9H16.2z"/>
</svg>
