<?xml version="1.0" encoding="utf-8"?>
<!-- Generator: Adobe Illustrator 24.1.2, SVG Export Plug-In . SVG Version: 6.00 Build 0)  -->
<svg version="1.1" id="Layer_1" xmlns="http://www.w3.org/2000/svg" xmlns:xlink="http://www.w3.org/1999/xlink" x="0px" y="0px"
	 viewBox="0 0 25 25" style="enable-background:new 0 0 25 25;" xml:space="preserve">
<g>
	<path d="M12.9,2.2c2.7,1.7,5.5,3.2,8.3,4.8c0.2,0.2,0.4,0.5,0.4,0.7v9.7c0,0.3-0.2,0.6-0.5,0.7c-2.7,1.7-5.5,3.2-8.2,4.8
		c-0.3,0.2-0.6,0.2-0.9,0c-2.7-1.6-5.5-3.2-8.3-4.8c-0.2-0.2-0.4-0.4-0.4-0.7V7.6c0-0.3,0.2-0.6,0.5-0.7c2.7-1.6,5.5-3.2,8.2-4.8
		C12.4,2.1,12.6,2.1,12.9,2.2z M12.5,3.8C10,5.3,7.5,6.7,5,8.1v8.7c2.4,1.5,5,2.9,7.4,4.4c2.5-1.5,5.1-2.9,7.5-4.4V8.1
		C17.5,6.7,15,5.3,12.5,3.8z"/>
</g>
</svg>
