<svg xmlns="http://www.w3.org/2000/svg" xmlns:xlink="http://www.w3.org/1999/xlink" version="1.1" x="0px" y="0px" viewBox="0 0 32 40" enable-background="new 0 0 32 32" xml:space="preserve"><g><path d="M30.3716,20.5859l-5.4028-2.1613C25.6342,16.877,26,15.2004,26,13.5C26,6.6074,20.3926,1,13.5,1S1,6.6074,1,13.5   S6.6074,26,13.5,26c1.7006,0,3.3774-0.3661,4.925-1.0316l2.1609,5.4027C20.7383,30.752,21.1064,31,21.5146,31   c0.0098,0,0.0195,0,0.0293,0c0.4194-0.0127,0.7866-0.2861,0.9194-0.6836l1.9634-5.8896l5.8896-1.9639   c0.3979-0.1318,0.6709-0.499,0.6831-0.9189C31.0117,21.125,30.7612,20.7422,30.3716,20.5859z M13.5,24C7.7104,24,3,19.29,3,13.5   S7.7104,3,13.5,3S24,7.71,24,13.5c0,1.4458-0.3153,2.8707-0.8875,4.1821l-6.8831-2.7534   c-0.3721-0.1475-0.7964-0.0615-1.0786,0.2217c-0.2827,0.2832-0.3701,0.707-0.2217,1.0781l2.7534,6.8839   C16.371,23.6843,14.9462,24,13.5,24z M23.3198,22.6875c-0.2983,0.0986-0.5327,0.333-0.6323,0.6318l-1.2583,3.7744l-3.7764-9.4414   l9.4409,3.7764L23.3198,22.6875z"/></g><text x="0" y="47" fill="#000000" font-size="5px" font-weight="bold" font-family="'Helvetica Neue', Helvetica, Arial-Unicode, Arial, Sans-serif">Created by Icon Lauk</text><text x="0" y="52" fill="#000000" font-size="5px" font-weight="bold" font-family="'Helvetica Neue', Helvetica, Arial-Unicode, Arial, Sans-serif">from the Noun Project</text></svg>