<svg id="draw.id" overflow="visible" v:layers="{&quot;default&quot;:{&quot;name&quot;:&quot;Default&quot;,&quot;print&quot;:1,&quot;display&quot;:1,&quot;publish&quot;:1}}" v:ver="3" x="500.5" xmlns="http://www.w3.org/2000/svg" xmlns:v="http://vecta.io" xmlns:xlink="http://www.w3.org/1999/xlink" y="500.5" v:stencils="{&quot;0&quot;:{&quot;id&quot;:&quot;stencil_65&quot;,&quot;expand&quot;:0,&quot;show_name&quot;:1}}"><style xmlns="http://www.w3.org/1999/xhtml"><![CDATA[#draw\.id{stroke:#000;stroke-linecap:round;stroke-linejoin:round;fill:#fff;fill-rule:evenodd;font-family:Roboto;font-size:14px;text-anchor:middle}#draw\.id text{stroke:none}]]></style><defs><style type="text/css">@import url('https://fonts.googleapis.com/css?family=Roboto+Condensed:400,400i,700,700i');@import url('https://fonts.googleapis.com/css?family=Roboto:400,400i,700,700i');@import url('https://fonts.googleapis.com/css?family=Cousine:400,400i,700,700i');@import url('https://fonts.googleapis.com/css?family=Anonymous+Pro:400,400i,700,700i');@import url('https://fonts.googleapis.com/css?family=Lato:400,400i,700,700i');@import url('https://fonts.googleapis.com/css?family=Open+Sans:400,400i,700,700i');</style></defs><title xmlns="http://www.w3.org/1999/xhtml">Untitled drawing</title><desc xmlns="http://www.w3.org/1999/xhtml"></desc><svg height="844" id="kdtyt5065" overflow="visible" v:setup="{&quot;paper&quot;:&quot;CUSTOM&quot;,&quot;unit&quot;:&quot;px&quot;,&quot;scale&quot;:{&quot;from&quot;:1,&quot;to&quot;:1},&quot;width&quot;:197,&quot;height&quot;:211}" viewBox="0 0 197 211" width="788"><g id="ke1a0z90g8" transform="translate(113.4672157178291 64.00001720818523)" class=""><path d="M 58.0956 21.4375 C 1.2853682702854217 41.81248589125633 7.573762655051049 40.41101449233055 13.377290487082298 37.915363247213364 L 21.48062300661355 58.175487453756325 C 22.052064657004173 59.60386269789696 23.43254256227761 60.53388589125633 24.96330428102761 60.53388589125633 C 25.000077962668236 60.53388589125633 25.036393880636986 60.53388589125633 25.07316756227761 60.53388589125633 C 26.645890950949486 60.486240322408676 28.022844075949486 59.4610022852993 28.520890950949486 57.97037118178367 L 35.88371443727762 35.88438027602196 L 57.969590902121354 28.51976388197899 C 59.46174788454323 28.025493557271957 60.485460042746354 26.6485022852993 60.531236409933854 25.073871547994614 C 60.577317952902604 23.502635891256332 59.55662905273437 22.02362823486328 58.0956 21.4375 Z L 5.143800496847924 0.2665137599086757 C 3.7483842370822957 -0.2866173436069493 2.1571977136447957 0.03587716322898819 1.0990006921604207 1.0978888819789883 C 0.03882002809792069 2.1599006007289883 -0.28893876096457927 3.7491416285610195 0.26770186403542073 5.140743191061019 L 10.592866658957298 30.95537179213524 Z M 31.73271346071511 29.362010891256332 C 30.614091634543236 29.731769497213364 29.735185384543236 30.610752041158676 29.361650228293236 31.731243068990707 L 24.643022298605736 45.885257656393044 L 10.481477498801048 10.480022365865707 L 45.884935140402604 24.641513759908676 L 31.73271346071511 29.362010891256332 Z" stroke="none" stroke-linejoin="miter" stroke-linecap="butt" fill="#000000" fill-rule="nonzero" stroke-width="3.7500213368921447"/></g></svg></svg>