<svg id="draw.id" overflow="visible" v:layers="{&quot;default&quot;:{&quot;name&quot;:&quot;Default&quot;,&quot;print&quot;:1,&quot;display&quot;:1,&quot;publish&quot;:1}}" v:ver="3" x="500.5" xmlns="http://www.w3.org/2000/svg" xmlns:v="http://vecta.io" xmlns:xlink="http://www.w3.org/1999/xlink" y="500.5" v:stencils="{&quot;0&quot;:{&quot;id&quot;:&quot;stencil_65&quot;,&quot;expand&quot;:0,&quot;show_name&quot;:1}}"><style xmlns="http://www.w3.org/1999/xhtml"><![CDATA[#draw\.id{stroke:#000;stroke-linecap:round;stroke-linejoin:round;fill:#fff;fill-rule:evenodd;font-family:Roboto;font-size:14px;text-anchor:middle}#draw\.id text{stroke:none}]]></style><defs><style type="text/css">@import url("https://fonts.googleapis.com/css?family=Roboto+Condensed:400,400i,700,700i"); @import url("https://fonts.googleapis.com/css?family=Roboto:400,400i,700,700i"); @import url("https://fonts.googleapis.com/css?family=Cousine:400,400i,700,700i"); @import url("https://fonts.googleapis.com/css?family=Anonymous+Pro:400,400i,700,700i"); @import url("https://fonts.googleapis.com/css?family=Lato:400,400i,700,700i"); @import url("https://fonts.googleapis.com/css?family=Open+Sans:400,400i,700,700i");</style></defs><title xmlns="http://www.w3.org/1999/xhtml">Untitled drawing</title><desc xmlns="http://www.w3.org/1999/xhtml"></desc><svg height="600" id="kdtyt5065" overflow="visible" v:setup="{&quot;paper&quot;:&quot;CUSTOM&quot;,&quot;unit&quot;:&quot;px&quot;,&quot;scale&quot;:{&quot;from&quot;:&quot;1&quot;,&quot;to&quot;:&quot;1&quot;},&quot;width&quot;:&quot;25 px&quot;,&quot;height&quot;:&quot;25 px&quot;,&quot;margin&quot;:{&quot;top&quot;:&quot;0&quot;,&quot;bottom&quot;:&quot;0&quot;,&quot;left&quot;:&quot;0&quot;,&quot;right&quot;:&quot;0&quot;},&quot;orient&quot;:0}" viewBox="0 0 25 25" width="600"><g id="ke18i7qula" transform="translate(3.5 3.5)" class=""><path d="M 17.62305369758491 11.751607282543013 L 14.381360123501242 10.454822412424058 C 14.780605599193843 9.52625867355277 15.000089291878792 8.520289700275438 15.000089291878792 7.500043910738893 C 15.000089291878792 3.3644608263269395 11.635614245171983 0 7.500043425229191 0 C 3.364448191082551 0 0 3.3644608263269395 0 7.500043910738893 C 0 11.635627605505947 3.364448191082551 15.000088050360946 7.500043425229191 15.000088050360946 C 8.520410661277465 15.000088050360946 9.526495588068704 14.780427351651005 10.455065417610276 14.381120834909714 L 11.751606127702138 17.622759522001502 C 11.843037321150977 17.851300887488048 12.063915064876204 18.000105462067737 12.308838357981351 18.000105462067737 C 12.31472218111117 18.000105462067737 12.320532761629414 18.000105462067737 12.326416584759235 18.000105462067737 C 12.578053783925375 17.992482126807275 12.798367559541477 17.828443088808765 12.878055520934526 17.589940728009903 L 14.056114099702722 14.056161673498812 L 17.589874794541657 12.877816211489737 C 17.828621294070683 12.798732500545157 17.992416187755133 12.578412618321886 17.999740448912597 12.326470238112682 C 18.007113538477753 12.07507107394685 17.856819699526866 11.845388344414088 17.62305369758491 11.751607282543013 Z M 7.500043425229191 13.800081085678244 C 4.026268429269768 13.800081085678244 1.2000069480366706 10.974063707282296 1.2000069480366706 7.500043910738893 C 1.2000069480366706 4.0260247245506084 4.026268429269768 1.200007040977101 7.500043425229191 1.200007040977101 C 10.973818421188625 1.200007040977101 13.800082343842101 4.0260247245506084 13.800082343842101 7.500043910738893 C 13.800082343842101 8.367530024615855 13.610896678145153 9.22247273073159 13.267584143491598 10.0093181177913 L 9.13769939162739 8.357269955302138 C 8.914431497344436 8.268768465088618 8.659840179511464 8.32036788565862 8.490527675755068 8.49029074686858 C 8.320897787348516 8.660213608078532 8.268456077461176 8.914493648339594 8.357519093135771 9.137151190614706 L 10.009555025606419 13.267515738879574 C 9.222660821053807 13.610657378866065 8.367773058756207 13.800081085678244 7.500043425229191 13.800081085678244 Z M 13.391950097945118 13.01257651510521 C 13.212969569460887 13.071738235425183 13.072343755237835 13.21237625870105 13.012577784193033 13.391655863669426 L 12.25759294408306 15.656311341416577 L 9.99173265678996 9.991440816768172 L 15.656318677382478 12.257292590520946 L 13.391950097945118 13.01257651510521 Z" stroke="none" stroke-linejoin="miter" stroke-linecap="butt" fill="#000000" fill-rule="nonzero" stroke-width="3.75"/></g><g id="ke18kpb621j" transform="translate(3 4.75)" class=""><path fill="#000000" d="M 1.5 0 L 8.25 6.5 L 0 2 Z" stroke-width="0.5" stroke="none" class=""/></g></svg></svg>