<svg id="draw.id" overflow="visible" v:layers="{&quot;default&quot;:{&quot;name&quot;:&quot;Default&quot;,&quot;print&quot;:1,&quot;display&quot;:1,&quot;publish&quot;:1}}" v:ver="3" x="500.5" xmlns="http://www.w3.org/2000/svg" xmlns:v="http://vecta.io" xmlns:xlink="http://www.w3.org/1999/xlink" y="500.5" v:stencils="{&quot;0&quot;:{&quot;id&quot;:&quot;stencil_65&quot;,&quot;expand&quot;:0,&quot;show_name&quot;:1}}"><style xmlns="http://www.w3.org/1999/xhtml"><![CDATA[#draw\.id{stroke:#000;stroke-linecap:round;stroke-linejoin:round;fill:#fff;fill-rule:evenodd;font-family:Roboto;font-size:14px;text-anchor:middle}#draw\.id text{stroke:none}]]></style><defs><style type="text/css">@import url('https://fonts.googleapis.com/css?family=Roboto+Condensed:400,400i,700,700i');@import url('https://fonts.googleapis.com/css?family=Roboto:400,400i,700,700i');@import url('https://fonts.googleapis.com/css?family=Cousine:400,400i,700,700i');@import url('https://fonts.googleapis.com/css?family=Anonymous+Pro:400,400i,700,700i');@import url('https://fonts.googleapis.com/css?family=Lato:400,400i,700,700i');@import url('https://fonts.googleapis.com/css?family=Open+Sans:400,400i,700,700i');</style></defs><title xmlns="http://www.w3.org/1999/xhtml">Untitled drawing</title><desc xmlns="http://www.w3.org/1999/xhtml"></desc><svg height="422" id="kdtyt5065" overflow="visible" v:setup="{&quot;paper&quot;:&quot;CUSTOM&quot;,&quot;unit&quot;:&quot;px&quot;,&quot;scale&quot;:{&quot;from&quot;:1,&quot;to&quot;:1},&quot;width&quot;:197,&quot;height&quot;:211}" viewBox="0 0 197 211" width="394"><g id="ke19bk83g8" transform="translate(47.50062568733324 34.99999690055847)" class=""><path d="M 110.14344787597656 73.44711923599243 L 89.88298034667969 65.34226083755493 C 92.37825012207031 59.53877115249634 93.75001525878906 53.25150156021118 93.75001525878906 46.87500238418579 C 93.75001525878906 21.02775812149048 72.72216796875 0 46.875 0 C 21.027679443359375 0 0 21.02775812149048 0 46.87500238418579 C 0 72.72225046157837 21.027679443359375 93.75000619888306 46.875 93.75000619888306 C 53.25225830078125 93.75000619888306 59.540252685546875 92.37713479995728 65.34378051757812 89.88148355484009 L 73.44711303710938 110.14160776138306 C 74.0185546875 111.56998300552368 75.39903259277344 112.50000619888306 76.92979431152344 112.50000619888306 C 76.96656799316406 112.50000619888306 77.00288391113281 112.50000619888306 77.03965759277344 112.50000619888306 C 78.61238098144531 112.4523606300354 79.98933410644531 111.42712259292603 80.48738098144531 109.9364914894104 L 87.85020446777344 87.85050058364868 L 109.93608093261719 80.48588418960571 C 111.42823791503906 79.99161386489868 112.45195007324219 78.61462259292603 112.49772644042969 77.03999185562134 C 112.54380798339844 75.46875619888306 111.60447692871094 74.03324747085571 110.14344787597656 73.44711923599243 Z M 46.875 86.25000619888306 C 25.164031982421875 86.25000619888306 7.5 68.58750009536743 7.5 46.87500238418579 C 7.5 25.162508487701416 25.164031982421875 7.500000476837158 46.875 7.500000476837158 C 68.58596801757812 7.500000476837158 86.25001525878906 25.162508487701416 86.25001525878906 46.87500238418579 C 86.25001525878906 52.29675912857056 85.06761169433594 57.64012002944946 82.92192077636719 62.55787515640259 L 57.11029052734375 52.2326340675354 C 55.714874267578125 51.679502964019775 54.123687744140625 52.00199747085571 53.06549072265625 53.06400918960571 C 52.00531005859375 54.12602090835571 51.67755126953125 55.715261936187744 52.23419189453125 57.106863498687744 L 62.559356689453125 82.92149209976196 C 57.64129638671875 85.06611490249634 52.29827880859375 86.25000619888306 46.875 86.25000619888306 Z M 83.69920349121094 81.32813119888306 C 82.58058166503906 81.69788980484009 81.70167541503906 82.5768723487854 81.32814025878906 83.69736337661743 L 76.60951232910156 97.85137796401978 L 62.447967529296875 62.44614267349243 L 97.85142517089844 76.6076340675354 L 83.69920349121094 81.32813119888306 Z" fill-rule="nonzero" stroke="none" stroke-linejoin="miter" stroke-linecap="butt" fill="#000000" stroke-width="3.7500213368921447"/></g><g id="ke19cfiavi" transform="translate(50 15)" class=""><path fill="none" d="M 40 0 L 0 10 L 30 55 Z" stroke-width="0.5" stroke="none" class=""/></g></svg></svg>