<svg id="draw.id" overflow="visible" v:layers="{&quot;default&quot;:{&quot;name&quot;:&quot;Default&quot;,&quot;print&quot;:1,&quot;display&quot;:1,&quot;publish&quot;:1}}" v:ver="3" x="500.5" xmlns="http://www.w3.org/2000/svg" xmlns:v="http://vecta.io" xmlns:xlink="http://www.w3.org/1999/xlink" y="500.5" v:stencils="{&quot;0&quot;:{&quot;id&quot;:&quot;stencil_65&quot;,&quot;expand&quot;:0,&quot;show_name&quot;:1}}"><style xmlns="http://www.w3.org/1999/xhtml"><![CDATA[#draw\.id{stroke:#000;stroke-linecap:round;stroke-linejoin:round;fill:#fff;fill-rule:evenodd;font-family:Roboto;font-size:14px;text-anchor:middle}#draw\.id text{stroke:none}]]></style><defs><style type="text/css">@import url("https://fonts.googleapis.com/css?family=Roboto+Condensed:400,400i,700,700i"); @import url("https://fonts.googleapis.com/css?family=Roboto:400,400i,700,700i"); @import url("https://fonts.googleapis.com/css?family=Cousine:400,400i,700,700i"); @import url("https://fonts.googleapis.com/css?family=Anonymous+Pro:400,400i,700,700i"); @import url("https://fonts.googleapis.com/css?family=Lato:400,400i,700,700i"); @import url("https://fonts.googleapis.com/css?family=Open+Sans:400,400i,700,700i");</style></defs><title xmlns="http://www.w3.org/1999/xhtml">Untitled drawing</title><desc xmlns="http://www.w3.org/1999/xhtml"></desc><svg height="300" id="kdtyt5065" overflow="visible" v:setup="{&quot;paper&quot;:&quot;CUSTOM&quot;,&quot;unit&quot;:&quot;px&quot;,&quot;scale&quot;:{&quot;from&quot;:&quot;1&quot;,&quot;to&quot;:&quot;1&quot;},&quot;width&quot;:&quot;25 px&quot;,&quot;height&quot;:&quot;25 px&quot;,&quot;margin&quot;:{&quot;top&quot;:&quot;0&quot;,&quot;bottom&quot;:&quot;0&quot;,&quot;left&quot;:&quot;0&quot;,&quot;right&quot;:&quot;0&quot;},&quot;orient&quot;:0}" viewBox="0 0 25 25" width="300"><g id="ke1aaouwg8" transform="translate(13.580412690702701 12.454407876986666)" class=""><path d="M 8.721535302354075 3.7168121401811036 L 5.375516707425321 5.203933535973128 C 5.304023458599018 5.232529926382988 5.246821586572688 5.289727252806011 5.2182206505595214 5.361225047235618 L 3.7311156189393997 8.721544110170958 C 3.588110938873569 9.050423055099218 3.0733486378762667 8.936032947856477 2.9303439578104324 8.549952130901884 L 0.027612597465906972 0.4994836659413373 C -0.0867911465867584 0.17060017540977182 0.1705990951185071 -0.08678552069218584 0.4994825856500728 0.027609132153863736 L 8.56425742790151 2.9160541158620634 C 8.950324608046177 3.0590451591179737 9.05041879288564 3.573821096925195 8.721535302354075 3.7168121401811036 Z" stroke="none" stroke-linejoin="miter" stroke-linecap="butt" fill="#000000" fill-rule="nonzero" stroke-width="1.2000068009829112"/></g><g id="ke1aaouyg9" transform="translate(7.7294139148245025 16.67346391640539)" class=""><path d="M 2.158265296918485 1.7540495348010077 C 2.107765636049488 1.7540495348010077 2.0572338507142907 1.7540495348010077 2.0067020653790935 1.728791673249959 C 1.375102935388426 1.52668059414227 0.7687857602984587 1.2235139754807358 0.21296824607748716 0.869823602600555 C -0.014408725697801016 0.7182443088280632 -0.06494051103299858 0.41507769016652923 0.0866548449725941 0.21296661105883996 C 0.23825020097818678 -0.014410360716448009 0.5414087885231702 -0.06493411493509516 0.7435038053977593 0.08664517883739659 C 1.2235075793828336 0.41507769016652923 1.7540752631693068 0.667712523492865 2.2846108224895807 0.8445577099329561 C 2.537239230922675 0.9203473568192018 2.6635526320275678 1.1982480828131368 2.587771016257873 1.450890947256024 C 2.537239230922675 1.6277361336961151 2.3603940444825846 1.7540495348010077 2.158265296918485 1.7540495348010077 Z" stroke="none" stroke-linejoin="miter" stroke-linecap="butt" fill="#000000" fill-rule="nonzero" stroke-width="1.2000068009829112"/></g><g id="ke1aaouzga" transform="translate(5.0779753068152464 13.339903802584079)" class=""><path d="M 1.3485884168771896 2.586516352753573 C 1.197025185337799 2.586516352753573 1.0454298293322062 2.5107267058673273 0.9696482135625106 2.3844052736458825 C 0.5654260553471316 1.8538697143256102 0.2622674678021484 1.2728023696701416 0.034890496026860306 0.6412104676843707 C -0.0661730746435348 0.38857563435803427 0.060140326461358216 0.11067490836409881 0.3127992531373458 0.03488526147785293 C 0.5654260553471316 -0.06617027807599174 0.8433348124576174 0.0601511541454517 0.9191164282273125 0.3127859874717883 C 1.1212114451019013 0.8433215467920595 1.3991202022123879 1.3486000476729383 1.7275607446580714 1.8286118527745627 C 1.8791239761974623 2.0307149007657017 1.8285921908622647 2.3338815194272353 1.6264971739876766 2.4854608131997273 C 1.5507155582179812 2.5612584912025236 1.4496519875475855 2.586516352753573 1.3485884168771896 2.586516352753573 Z" stroke="none" stroke-linejoin="miter" stroke-linecap="butt" fill="#000000" fill-rule="nonzero" stroke-width="1.2000068009829112"/></g><g id="ke1aaov0gb" transform="translate(4.632849988144424 9.060368573647331)" class=""><path d="M 0.4800037739850744 2.7985839386005162 C 0.22734484730908655 2.7985839386005162 0 2.5964728594928266 0 2.318572133498891 L 0.4800037739850744 2.318572133498891 L 0 2.318572133498891 C 0 1.6364572804061295 0.07578161576969553 0.9796002888644163 0.25262680220978617 0.34800918999029956 C 0.32840841797948156 0.095370341105688 0.5810673446554695 -0.056212968225078895 0.8336941468652556 0.019576678661166975 C 1.0863209490750418 0.095370341105688 1.2379163050806345 0.34800918999029956 1.1621025648447378 0.6006440233166359 C 1.010539333305346 1.1564454753045066 0.9347577175356501 1.7122469272923762 0.9347577175356501 2.2933142719478448 C 0.9600075479701488 2.5964728594928266 0.7326305761948607 2.7985839386005162 0.4800037739850744 2.7985839386005162 Z" stroke="none" stroke-linejoin="miter" stroke-linecap="butt" fill="#000000" fill-rule="nonzero" stroke-width="1.2000068009829112"/></g><g id="ke1aaov1gc" transform="translate(17.100763510148152 6.844396947456133)" class=""><path d="M 1.3765693398569465 2.5639834362804113 C 1.1744743229823582 2.5639834362804113 0.9976291365422675 2.437662004058968 0.9218475207725723 2.2608168176188768 C 0.7197203794317824 1.7302772427403306 0.4418116223212965 1.2250035605293834 0.08812124944111545 0.7449917554277589 C -0.06344198209827552 0.5428846918783444 -0.012910196763077976 0.23971807321681068 0.18918482011151033 0.08813436233021606 C 0.39127983698609914 -0.06344493144227563 0.6944705489972844 -0.012917161665353309 0.8460337805366751 0.18919030343988824 C 1.2502559387520533 0.719729878318435 1.5534145262970365 1.3007932074156283 1.780791498072325 1.9323883218480198 C 1.8818550687427185 2.1850231551743557 1.755541667637826 2.4629278967265664 1.5028827409618393 2.5387175436128118 C 1.4776329105273405 2.5639834362804113 1.4271011251921428 2.5639834362804113 1.3765693398569465 2.5639834362804113 Z" stroke="none" stroke-linejoin="miter" stroke-linecap="butt" fill="#000000" fill-rule="nonzero" stroke-width="1.2000068009829112"/></g><g id="ke1aaov1gd" transform="translate(5.959478126311553 5.510717676258192)" class=""><path d="M 0.46708447221314964 2.306057205747054 C 0.36605302600895606 2.306057205747054 0.2649894553385609 2.280795328637731 0.1892078395688654 2.205005681751485 C -0.01291930177192473 2.0534223724207186 -0.06345108710712233 1.7502557537591843 0.08814426889847035 1.5481486902097694 C 0.46708447221314964 1.0176087137753964 0.9470882461982235 0.5376011250099602 1.4523739750839981 0.10811688890734435 C 1.6545011164247878 -0.06872829753274608 1.9576597039697712 -0.018200527755823773 2.134504890409862 0.18390653579359023 C 2.311350076849953 0.38601781567919324 2.2608182915147537 0.6891802180045387 2.0586911501739644 0.8660254044446288 C 1.6039693310895913 1.2197197928830843 1.199747172874212 1.6492042297636147 0.8713066304285283 2.103950142197641 C 0.7449932293236349 2.2302675588608096 0.6186798282187423 2.306057205747054 0.46708447221314964 2.306057205747054 Z" stroke="none" stroke-linejoin="miter" stroke-linecap="butt" fill="#000000" fill-rule="nonzero" stroke-width="1.2000068009829112"/></g><g id="ke1aaov2ge" transform="translate(13.655403365750542 4.333805539268729)" class=""><path d="M 2.1440146238907394 1.7397757669785456 C 2.0429510532203436 1.7397757669785456 1.967137312984447 1.7145140906471354 1.8913556972147512 1.663986320870213 C 1.4113519232296767 1.3355576243214415 0.8808163639094061 1.108184668104429 0.3249988496884344 0.9313354661060631 C 0.07237204747864859 0.8555458192198174 -0.0539413536262443 0.5776450932258816 0.021840262143451104 0.3250062443412702 C 0.09765400237934817 0.0723714110149337 0.375530635023632 -0.053946005648234506 0.6281895616996195 0.021843641238011392 C 1.2597565672240856 0.2239547203457007 1.8661058667802535 0.5018554463396357 2.4218912565350244 0.8808076963291406 C 2.6492682283103117 1.032391005659908 2.699800013645508 1.310291731653843 2.5482046576399164 1.5376648886487696 C 2.447173211435723 1.663986320870213 2.295577855430131 1.7397757669785456 2.1440146238907394 1.7397757669785456 Z" stroke="none" stroke-linejoin="miter" stroke-linecap="butt" fill="#000000" fill-rule="nonzero" stroke-width="1.2000068009829112"/></g><g id="ke1aaov3gf" transform="translate(9.385835043238457 4.000031791584428)" class=""><path d="M 0.4765942056940272 1.2903726164725098 C 0.2744991888194388 1.2903726164725098 0.09765400237934824 1.164055199809342 0.02184026214345112 0.9619441207016526 C -0.053941353626244345 0.7093052718170405 0.07237204747864867 0.4314045458231056 0.32499884968843473 0.35561489893685944 C 0.9565995859024119 0.15350381982917033 1.6134485463275776 0.027186403166001974 2.2703280249956337 0.0019245260566784113 C 2.522954827205421 -0.02334136661092037 2.750331798980707 0.20403158960609258 2.775581629415205 0.4566704384907043 C 2.775581629415205 0.7093052718170405 2.5734866125406164 0.9366782280340533 2.320859810330831 0.9619441207016526 C 1.739794071898671 0.9872059978109756 1.1839765576777002 1.0882615373648203 0.6281895616996197 1.265106723804911 C 0.5776577763644222 1.2903726164725098 0.5271259910292245 1.2903726164725098 0.4765942056940272 1.2903726164725098 Z" stroke="none" stroke-linejoin="miter" stroke-linecap="butt" fill="#000000" fill-rule="nonzero" stroke-width="1.2000068009829112"/></g><g id="ke1ac96z1yt" transform="translate(18.083037704997516 10.67533006749129) rotate(180 0.5908444515695224 1.399291969300259)" class="" v:flip="{&quot;flipV&quot;:true,&quot;flipH&quot;:true}"><path d="M 0.4800037739850745 2.7985839386005162 C 0.22734484730908655 2.7985839386005162 0 2.5964728594928266 0 2.318572133498891 L 0.4800037739850745 2.318572133498891 L 0 2.318572133498891 C 0 1.6364572804061295 0.07578161576969553 0.9796002888644163 0.25262680220978617 0.34800918999029956 C 0.32840841797948156 0.095370341105688 0.5810673446554696 -0.056212968225078895 0.8336941468652556 0.019576678661166975 C 1.0863209490750418 0.095370341105688 1.2379163050806345 0.34800918999029956 1.1621025648447378 0.6006440233166359 C 1.010539333305346 1.1564454753045066 0.9347577175356501 1.7122469272923762 0.9347577175356501 2.2933142719478448 C 0.9600075479701488 2.5964728594928266 0.7326305761948609 2.7985839386005162 0.4800037739850745 2.7985839386005162 Z" stroke="none" stroke-linejoin="miter" stroke-linecap="butt" fill="#000000" fill-rule="nonzero" stroke-width="1.2"/><g transform="translate(0 0) rotate(180 0.5908446311950684 1.399292230606079)" class="Text.cls"><rect x="0" y="0" width="1.1816893134868705" height="2.798584566595885" fill="none" stroke="none"/><text fill="#000000" fill-opacity="1"/></g></g><g id="ke1ad5ot2d6" transform="translate(11.911940377575922 17.437477081177093) rotate(180 1.3877892575347703 0.6451866614942919)" class="" v:flip="{&quot;flipH&quot;:true,&quot;flipV&quot;:true}"><path d="M 0.47660212160507687 1.290373322988584 C 0.27449245597390026 1.290373322988584 0.0976464985466209 1.1640547819690983 0.021834320844759773 0.9619451163379222 C -0.05393575067676148 0.7093080342989518 0.07238279034272382 0.4314072440560844 0.3249988192915247 0.35561611944439286 C 0.9565915243889511 0.15350645381321648 1.6134479376902744 0.027187912793731034 2.2703254040817673 0.001924204589833972 C 2.522962486120738 -0.023339503614063083 2.7503358599558125 0.20403387022101033 2.7755785150695376 0.4566709522599812 C 2.7755785150695376 0.7093080342989518 2.573489902528532 0.9366814081340256 2.320852820489561 0.9619451163379222 C 1.7397875317999292 0.9872088245418192 1.1839859513141935 1.0882636573574076 0.6281843708284591 1.2651096147846872 C 0.577656954420665 1.290373322988584 0.527129538012871 1.290373322988584 0.47660212160507687 1.290373322988584 Z" stroke="none" stroke-linejoin="miter" stroke-linecap="butt" fill="#000000" fill-rule="nonzero" stroke-width="1.2"/><g transform="translate(0 0) rotate(180 1.387790560722351 0.6451863646507263)" class="Text.cls"><rect x="0" y="0" width="2.7755811499483127" height="1.2903727192981882" fill="none" stroke="none"/><text fill="#000000" fill-opacity="1"/></g></g></svg></svg>