<svg xmlns="http://www.w3.org/2000/svg" overflow="visible" x="500.5" y="500.5"><defs><style>@import url("https://fonts.googleapis.com/css?family=Roboto+Condensed:400,400i,700,700i"); @import url("https://fonts.googleapis.com/css?family=Roboto:400,400i,700,700i"); @import url("https://fonts.googleapis.com/css?family=Cousine:400,400i,700,700i"); @import url("https://fonts.googleapis.com/css?family=Anonymous+Pro:400,400i,700,700i"); @import url("https://fonts.googleapis.com/css?family=Lato:400,400i,700,700i"); @import url("https://fonts.googleapis.com/css?family=Open+Sans:400,400i,700,700i");</style></defs><svg height="300" overflow="visible" viewBox="0 0 25 25" width="300"><path d="M22.302 16.17l-3.346 1.487c-.07.03-.13.086-.157.157l-1.487 3.36c-.143.33-.658.214-.8-.172l-2.903-8.05a.35.35 0 0 1 .472-.472l8.065 2.888c.386.143.486.658.157.8zM9.887 18.427c-.05 0-.1 0-.152-.025-.632-.202-1.238-.505-1.794-.86-.227-.152-.278-.455-.126-.657.152-.227.455-.278.657-.126a6.24 6.24 0 0 0 1.541.758c.253.076.38.354.303.606-.05.177-.227.303-.43.303zm-3.46-2.5a.45.45 0 0 1-.38-.202c-.404-.53-.707-1.112-.935-1.743-.1-.253.025-.53.278-.606.253-.1.53.025.606.278.202.53.48 1.036.808 1.516a.48.48 0 0 1-.101.657.38.38 0 0 1-.278.101zM5.113 11.86a.48.48 0 0 1-.48-.48h0c0-.682.076-1.34.253-1.97.076-.253.328-.404.58-.328s.404.328.328.58a6.36 6.36 0 0 0-.227 1.693.45.45 0 0 1-.455.505zm13.365-2.452a.5.5 0 0 1-.455-.303c-.202-.53-.48-1.036-.834-1.516a.48.48 0 0 1 .101-.657.48.48 0 0 1 .657.101c.404.53.707 1.112.935 1.743.1.253-.025.53-.278.606-.025.025-.076.025-.126.025zM6.426 7.817a.38.38 0 0 1-.278-.101.48.48 0 0 1-.101-.657c.38-.53.86-1 1.364-1.44.202-.177.505-.126.682.076s.126.505-.076.682A6.12 6.12 0 0 0 6.83 7.615c-.126.126-.253.202-.404.202zM15.8 6.074c-.1 0-.177-.025-.253-.076-.48-.328-1-.556-1.566-.733-.253-.076-.38-.354-.303-.606s.354-.38.606-.303a6.86 6.86 0 0 1 1.794.86c.227.152.278.43.126.657-.1.126-.253.202-.404.202zM9.863 5.3c-.202 0-.38-.126-.455-.328-.076-.253.05-.53.303-.606.632-.202 1.288-.328 1.945-.354.253-.025.48.202.505.455 0 .253-.202.48-.455.505-.58.025-1.137.126-1.693.303-.05.025-.1.025-.152.025zm8.922 5.374a.48.48 0 0 1 .48.48h0c0 .684-.076 1.34-.253 1.972-.075.253-.327.404-.58.328s-.404-.328-.328-.58a6.36 6.36 0 0 0 .227-1.693.45.45 0 0 1 .455-.505zM14.2 17.428c.202 0 .38.126.455.328.076.262-.05.542-.303.616-.632.202-1.288.33-1.945.354-.253.025-.48-.202-.505-.455 0-.253.202-.48.455-.505.58-.025 1.137-.126 1.693-.303.05-.025.1-.025.152-.025z"/></svg></svg>