<svg xmlns="http://www.w3.org/2000/svg" xmlns:xlink="http://www.w3.org/1999/xlink" viewBox="0 0 60 75" version="1.1" x="0px" y="0px"><title>Icon / blue / eraser</title><desc>Created with Sketch.</desc><g stroke="none" stroke-width="1" fill="none" fill-rule="evenodd"><path d="M50.9576728,43.85 C51.7860999,43.85 52.4576728,44.5215729 52.4576728,45.35 C52.4576728,46.1784271 51.7860999,46.85 50.9576728,46.85 L36.2086247,46.85 C35.3801976,46.85 34.7086247,46.1784271 34.7086247,45.35 C34.7086247,44.5215729 35.3801976,43.85 36.2086247,43.85 L50.9576728,43.85 Z M37.7503763,13.2482703 L44.6516091,20.1667243 C47.8014289,23.1165099 47.8665288,28.1168514 44.9473429,31.3093645 L44.857328,31.4036125 L30.7711902,45.5249003 C30.0207602,46.277203 29.001834,46.7 27.9392407,46.7 L18.0260616,46.7 C16.9634683,46.7 15.9445421,46.277203 15.1941121,45.5249003 L10.4452869,40.764225 C8.84515551,39.3621179 8,37.2625221 8,35.0841004 C8,32.9056787 8.84515551,30.806083 10.4452869,29.4039758 L26.5607782,13.2482703 C29.5510103,10.2505766 34.7601442,10.2505766 37.7503763,13.2482703 Z M16.738,27.343 L12.4875015,31.6046025 C11.4958338,32.4330544 11,33.7585774 11,35.0841004 C11,36.4096234 11.4958338,37.7351464 12.4875015,38.5635983 L17.0250306,43.1124502 C17.4002456,43.4886015 17.9097087,43.7 18.4410053,43.7 L27.524297,43.7 C28.0555937,43.7 28.5650568,43.4886015 28.9402718,43.1124502 L30.737,41.31 L16.738,27.343 Z M28.6847403,15.3669456 L18.856,25.219 L32.856,39.186 L42.7333659,29.2849372 C44.5514233,27.2966527 44.5514233,24.1485356 42.5680879,22.3259414 L35.6264141,15.3669456 C33.8083567,13.5443515 30.5027978,13.5443515 28.6847403,15.3669456 Z" fill="#000000" fill-rule="nonzero"/></g><text x="0" y="75" fill="#000000" font-size="5px" font-weight="bold" font-family="'Helvetica Neue', Helvetica, Arial-Unicode, Arial, Sans-serif">Created by Mia Design</text><text x="0" y="80" fill="#000000" font-size="5px" font-weight="bold" font-family="'Helvetica Neue', Helvetica, Arial-Unicode, Arial, Sans-serif">from the Noun Project</text></svg>