<?xml version="1.0" encoding="utf-8"?>
<!-- Generator: Adobe Illustrator 24.1.2, SVG Export Plug-In . SVG Version: 6.00 Build 0)  -->
<svg version="1.1" id="Layer_1" xmlns="http://www.w3.org/2000/svg" xmlns:xlink="http://www.w3.org/1999/xlink" x="0px" y="0px"
	 viewBox="0 0 25 25" style="enable-background:new 0 0 25 25;" xml:space="preserve">
<desc>Created with Sketch.</desc>
<path d="M4.5,20C3.7,20,3,19.3,3,18.5V5.8C3,5,3.7,4.3,4.5,4.3h3.2c0.4,0,0.7,0.1,1,0.4l1,0.9h9.9c0.8,0,1.5,0.7,1.5,1.5v2.1H22
	c0.7,0,1.3,0.6,1.3,1.3c0,0.1,0,0.2,0,0.3l-1.9,8.1c-0.2,0.7-0.8,1.2-1.5,1.2H4.5z M7.5,10.9l-1.9,7.2h14.1l1.7-7.2L7.5,10.9z
	 M4.8,12.4l0.4,0.1l0.6-2.2C6,9.6,6.6,9.1,7.3,9.1h12V7.3H9.6c-0.4,0-0.7-0.1-1-0.4l-1-0.9H4.8V12.4z"/>
</svg>
