<svg xmlns:dc="http://purl.org/dc/elements/1.1/" xmlns:cc="http://creativecommons.org/ns#" xmlns:rdf="http://www.w3.org/1999/02/22-rdf-syntax-ns#" xmlns:svg="http://www.w3.org/2000/svg" xmlns="http://www.w3.org/2000/svg" viewBox="0 0 47.999997 60" version="1.1" x="0px" y="0px"><path d="M 23.952628,1.0011042 A 1.0000793,1.0001181 0 0 0 23.562011,1.100715 L 5.0623935,10.100877 A 1.0000793,1.0001181 0 0 0 4.5233422,10.780578 L 0.0234351,30.780939 a 1.0000793,1.0001181 0 0 0 0.20116772,0.849624 L 13.224334,47.630852 A 1.0000793,1.0001181 0 0 0 13.999709,48 l 19.999587,0 a 1.0000793,1.0001181 0 0 0 0.775375,-0.369148 L 47.774402,31.630563 a 1.0000793,1.0001181 0 0 0 0.201167,-0.849624 L 43.475662,10.780578 A 1.0000793,1.0001181 0 0 0 42.936611,10.100877 L 24.436993,1.1007154 a 1.0000793,1.0001181 0 0 0 -0.484365,-0.099611 z m 0.04687,2.1094131 17.630495,8.5782797 4.287022,19.056985 -12.394271,15.254182 -19.046483,0 L 2.0819863,30.745782 6.3690071,11.688797 23.999502,3.1105173 Z" style="color:#000000;font-style:normal;font-variant:normal;font-weight:normal;font-stretch:normal;font-size:medium;line-height:normal;font-family:sans-serif;text-indent:0;text-align:start;text-decoration:none;text-decoration-line:none;text-decoration-style:solid;text-decoration-color:#000000;letter-spacing:normal;word-spacing:normal;text-transform:none;direction:ltr;block-progression:tb;writing-mode:lr-tb;baseline-shift:baseline;text-anchor:start;white-space:normal;clip-rule:nonzero;display:inline;overflow:visible;visibility:visible;opacity:1;isolation:auto;mix-blend-mode:normal;color-interpolation:sRGB;color-interpolation-filters:linearRGB;solid-color:#000000;solid-opacity:1;fill:#000000;fill-opacity:1;fill-rule:evenodd;stroke:none;stroke-width:2;stroke-linecap:butt;stroke-linejoin:round;stroke-miterlimit:4;stroke-dasharray:none;stroke-dashoffset:0;stroke-opacity:1;marker:none;color-rendering:auto;image-rendering:auto;shape-rendering:auto;text-rendering:auto;enable-background:accumulate"/><text x="0" y="63" fill="#000000" font-size="5px" font-weight="bold" font-family="'Helvetica Neue', Helvetica, Arial-Unicode, Arial, Sans-serif">Created by ICONCRAFT</text><text x="0" y="68" fill="#000000" font-size="5px" font-weight="bold" font-family="'Helvetica Neue', Helvetica, Arial-Unicode, Arial, Sans-serif">from the Noun Project</text></svg>