<svg xmlns="http://www.w3.org/2000/svg" xmlns:xlink="http://www.w3.org/1999/xlink" xmlns:serif="http://www.serif.com/" viewBox="0 0 101 125" version="1.1" xml:space="preserve" style="" x="0px" y="0px" fill-rule="evenodd" clip-rule="evenodd" stroke-linejoin="round" stroke-miterlimit="2"><rect serif:id="Page 56" x="0.5" y="0" width="100" height="100" style="" fill="none"/><path d="M50.786,5.01c0.502,0.08 0.629,0.121 1.082,0.352l36.555,21.105c1.21,0.786 1.296,0.998 1.368,2.369l0,42.21c-0.076,1.441 -0.216,1.621 -1.368,2.369l-36.555,21.105c-1.286,0.656 -1.512,0.624 -2.736,0l-36.555,-21.105c-1.21,-0.786 -1.296,-0.997 -1.368,-2.369l0,-42.21c0.076,-1.441 0.216,-1.621 1.368,-2.369l36.555,-21.105c0.392,-0.199 0.506,-0.412 1.654,-0.352Zm-34.106,25.405l0,39.052l33.82,19.526l33.82,-19.526l0,-39.052l-33.82,-19.526c-11.273,6.509 -22.547,13.018 -33.82,19.526Z"/><path d="M23.571,31.514c0.557,0.075 0.644,0.132 0.878,0.24c0.936,0.435 1.548,1.432 1.583,2.482l0,31.411c-0.022,0.676 -0.113,0.875 -0.294,1.233c-1.038,2.056 -5.074,1.812 -5.176,-1.233l0,-31.411c0.019,-0.562 0.067,-0.655 0.151,-0.898c0.34,-0.978 1.271,-1.719 2.31,-1.824c0.351,-0.035 0.435,-0.008 0.548,0Z"/><path d="M50.729,15.804c0.4,0.047 0.783,0.167 1.139,0.357l27.203,15.706c0.538,0.333 0.663,0.498 0.878,0.808c1.336,1.921 -0.957,5.354 -3.614,3.929l-27.203,-15.705c-2.053,-1.273 -1.627,-5.072 1.425,-5.104c0.057,0.003 0.115,0.006 0.172,0.009Z"/><path d="M77.817,62.914c1.336,0.098 1.46,0.43 1.84,0.819c1.151,1.175 0.889,3.368 -0.586,4.283l-27.203,15.705c-0.559,0.3 -0.763,0.326 -1.139,0.357c-1.828,0.154 -3.566,-1.955 -2.728,-3.838c0.163,-0.367 0.408,-0.696 0.712,-0.958c0.13,-0.113 0.273,-0.208 0.419,-0.299l27.203,-15.705c0.886,-0.475 0.757,-0.372 1.482,-0.364Z"/><text x="0" y="115" fill="#000000" font-size="5px" font-weight="bold" font-family="'Helvetica Neue', Helvetica, Arial-Unicode, Arial, Sans-serif">Created by Zach Bogart</text><text x="0" y="120" fill="#000000" font-size="5px" font-weight="bold" font-family="'Helvetica Neue', Helvetica, Arial-Unicode, Arial, Sans-serif">from the Noun Project</text></svg>