<svg xmlns="http://www.w3.org/2000/svg" xmlns:xlink="http://www.w3.org/1999/xlink" version="1.1" x="0px" y="0px" viewBox="0 0 100 125" style="enable-background:new 0 0 100 100;" xml:space="preserve"><path d="M23.3833008,55.7924805c0.359375,0.2763672,0.8603516,0.2763672,1.2197266,0l12.3867188-9.5307617l12.3916016,9.5307617  C49.5610352,55.9306641,49.7763672,56,49.9912109,56s0.4301758-0.0693359,0.6098633-0.2075195l12.387207-9.5307617  l12.3964844,9.53125c0.359375,0.2763672,0.859375,0.2763672,1.21875,0l13.0058594-10  c0.4379883-0.3369141,0.5200195-0.9648438,0.1835938-1.4023438c-0.3378906-0.4384766-0.9648438-0.5200195-1.4023438-0.1835938  l-12.3964844,9.5317383l-12.3964844-9.5317383c-0.359375-0.2763672-0.8598633-0.2758789-1.2192383,0.0004883l-12.387207,9.5307617  l-12.3916016-9.5307617c-0.359375-0.2763672-0.8603516-0.2763672-1.2197266,0l-12.3867188,9.5307617l-12.3833008-9.5307617  c-0.4365234-0.3349609-1.0654297-0.2553711-1.4023438,0.1826172c-0.3369141,0.4375-0.2548828,1.0654297,0.1826172,1.4023438  L23.3833008,55.7924805z"/><text x="0" y="115" fill="#000000" font-size="5px" font-weight="bold" font-family="'Helvetica Neue', Helvetica, Arial-Unicode, Arial, Sans-serif">Created by Made by Made</text><text x="0" y="120" fill="#000000" font-size="5px" font-weight="bold" font-family="'Helvetica Neue', Helvetica, Arial-Unicode, Arial, Sans-serif">from the Noun Project</text></svg>