<svg xmlns="http://www.w3.org/2000/svg" xmlns:xlink="http://www.w3.org/1999/xlink" version="1.1" x="0px" y="0px" viewBox="0 0 64 80" style="enable-background:new 0 0 64 64;" xml:space="preserve"><g><path d="M62.207,26.8789L40.9941,5.666c-0.3906-0.3906-1.0234-0.3906-1.4141,0L19.0732,26.1719   c-0.0002,0.0002-0.0003,0.0005-0.0005,0.0008l-7.7768,7.7766c-1.3223,1.3223-2.0508,3.0801-2.0508,4.9502   c0,1.8691,0.7275,3.627,2.0498,4.9492l12.7285,12.7285c0.0177,0.0177,0.0373,0.0323,0.0551,0.0498H9.5c-0.5527,0-1,0.4473-1,1   s0.4473,1,1,1h19.4697c0.0064,0,0.0117-0.0035,0.0181-0.0037c1.7869-0.0039,3.5746-0.6857,4.935-2.0461l7.7783-7.7783   L62.207,28.293C62.5977,27.9023,62.5977,27.2695,62.207,26.8789z M32.5088,55.1631c-1.9492,1.9492-5.1221,1.9492-7.0713,0   L12.709,42.4346c-1.9492-1.9492-1.9492-5.1211,0.001-7.0713l7.0704-7.0702l19.7997,19.7987L32.5088,55.1631z M40.9941,46.6777   L21.1945,26.879L40.2871,7.7871l19.7988,19.7988L40.9941,46.6777z"/><path d="M14.5,52.627c0-0.5527-0.4473-1-1-1h-11c-0.5527,0-1,0.4473-1,1s0.4473,1,1,1h11C14.0527,53.627,14.5,53.1797,14.5,52.627z   "/></g><text x="0" y="79" fill="#000000" font-size="5px" font-weight="bold" font-family="'Helvetica Neue', Helvetica, Arial-Unicode, Arial, Sans-serif">Created by Icon Lauk</text><text x="0" y="84" fill="#000000" font-size="5px" font-weight="bold" font-family="'Helvetica Neue', Helvetica, Arial-Unicode, Arial, Sans-serif">from the Noun Project</text></svg>