<?xml version="1.0" encoding="utf-8"?>
<!-- Generator: Adobe Illustrator 24.1.2, SVG Export Plug-In . SVG Version: 6.00 Build 0)  -->
<svg version="1.1" id="Layer_1" xmlns="http://www.w3.org/2000/svg" xmlns:xlink="http://www.w3.org/1999/xlink" x="0px" y="0px"
	 viewBox="0 0 25 25" style="enable-background:new 0 0 25 25;" xml:space="preserve">
<desc>Created with Sketch.</desc>
<g>
	<g>
		<path d="M4.4,5.2h3.2l0,0c0.3,0,0.6,0.1,0.8,0.3l1.1,0.9l0,0c0,0,0.1,0.1,0.2,0.1h9.9l0,0c0.7,0,1.2,0.5,1.2,1.2v2.2
			c0,0.1,0.1,0.2,0.2,0.2h1c0.5,0,1,0.4,1,1c0,0.1,0,0.1,0,0.2l-1.9,8.1c-0.1,0.5-0.6,0.9-1.2,0.9H4.4c-0.7,0-1.2-0.5-1.2-1.2V6.4
			l0,0C3.1,5.7,3.7,5.2,4.4,5.2L4.4,5.2z M21.5,11.5L21.5,11.5C21.5,11.5,21.5,11.5,21.5,11.5c0-0.2-0.1-0.3-0.2-0.3l0,0l-13.8,0
			c-0.2,0-0.4,0.1-0.5,0.4L5,18.7c0,0,0,0,0,0.1C5,18.9,5.1,19,5.3,19h14.2c0.1,0,0.2-0.1,0.2-0.2l0,0L21.5,11.5z M4.6,6.4L4.6,6.4
			c-0.1,0-0.2,0.1-0.2,0.2h0l0,9.4c0,0,0,0.1,0.1,0.1c0.1,0,0.1,0,0.1-0.1l0,0l1.4-5.1C6.1,10.4,6.6,10,7.1,10l0,0h12.1
			c0.1,0,0.2-0.1,0.2-0.2V7.8c0-0.1-0.1-0.2-0.2-0.2H9.5c-0.3,0-0.6-0.1-0.8-0.3L7.6,6.4c0,0-0.1-0.1-0.2-0.1l0,0H4.6z"/>
	</g>
</g>
</svg>
