<?xml version="1.0" encoding="utf-8"?>
<!-- Generator: Adobe Illustrator 24.1.2, SVG Export Plug-In . SVG Version: 6.00 Build 0)  -->
<svg version="1.1" id="Layer_1" xmlns="http://www.w3.org/2000/svg" xmlns:xlink="http://www.w3.org/1999/xlink" x="0px" y="0px"
	 viewBox="0 0 25 25" style="enable-background:new 0 0 25 25;" xml:space="preserve">
<g>
	<path d="M13.1,3c2.4,1.5,4.8,2.8,7.3,4.2c0.2,0.2,0.3,0.4,0.3,0.6v8.5c0,0.3-0.2,0.5-0.4,0.6c-2.4,1.5-4.8,2.8-7.2,4.2
		c-0.3,0.2-0.5,0.2-0.8,0c-2.4-1.4-4.8-2.8-7.3-4.2c-0.2-0.2-0.3-0.3-0.3-0.6V7.8c0-0.3,0.2-0.5,0.4-0.6C7.5,5.8,9.9,4.4,12.3,3
		C12.6,2.9,12.9,2.9,13.1,3z M12.7,4.5C10.5,5.8,8.3,7,6.1,8.3v7.7c2.1,1.3,4.4,2.6,6.5,3.9c2.2-1.3,4.5-2.6,6.6-3.9V8.3
		C17.2,7,14.9,5.8,12.7,4.5z"/>
</g>
</svg>
