<svg xmlns="http://www.w3.org/2000/svg" xmlns:xlink="http://www.w3.org/1999/xlink" version="1.1" x="0px" y="0px" viewBox="0 0 100 125" enable-background="new 0 0 100 100" xml:space="preserve"><g><path d="M50.045,96.5H50c-6.143,0-12.113-1.18-17.744-3.507l2.291-5.545C39.448,89.474,44.647,90.5,50,90.5L50.045,96.5z    M67.832,92.958l-2.303-5.541c4.922-2.046,9.338-5.004,13.123-8.793l4.244,4.24C78.553,87.213,73.484,90.608,67.832,92.958z    M17.17,82.931c-4.354-4.34-7.754-9.404-10.109-15.054l5.539-2.309c2.05,4.92,5.013,9.331,8.807,13.112L17.17,82.931z    M92.976,67.788l-5.543-2.297C89.468,60.579,90.5,55.367,90.5,50v-0.179h6V50C96.5,56.159,95.314,62.145,92.976,67.788z M3.5,50.09   V50c0-6.126,1.174-12.081,3.488-17.7l5.548,2.285C10.521,39.476,9.5,44.662,9.5,50L3.5,50.09z M87.368,34.355   c-2.06-4.915-5.031-9.32-8.833-13.095l4.229-4.258c4.362,4.332,7.772,9.39,10.138,15.034L87.368,34.355z M21.289,21.436   l-4.253-4.232c4.335-4.357,9.396-7.763,15.044-10.124l2.314,5.536C29.477,14.671,25.066,17.639,21.289,21.436z M65.377,12.52   C60.498,10.516,55.324,9.5,50,9.5l-0.135,0v-6l0.103,0c6.143,0,12.083,1.167,17.688,3.47L65.377,12.52z"/></g><text x="0" y="115" fill="#000000" font-size="5px" font-weight="bold" font-family="'Helvetica Neue', Helvetica, Arial-Unicode, Arial, Sans-serif">Created by Bakunetsu Kaito</text><text x="0" y="120" fill="#000000" font-size="5px" font-weight="bold" font-family="'Helvetica Neue', Helvetica, Arial-Unicode, Arial, Sans-serif">from the Noun Project</text></svg>