<svg xmlns="http://www.w3.org/2000/svg" id="draw.id" overflow="visible" x="500.5" y="500.5" stroke="#000" stroke-linecap="round" stroke-linejoin="round" fill="#fff" fill-rule="evenodd"><defs><style>@import url('https://fonts.googleapis.com/css?family=Roboto+Condensed:400,400i,700,700i'); @import url('https://fonts.googleapis.com/css?family=Roboto:400,400i,700,700i'); @import url('https://fonts.googleapis.com/css?family=Cousine:400,400i,700,700i'); @import url('https://fonts.googleapis.com/css?family=Anonymous+Pro:400,400i,700,700i'); @import url('https://fonts.googleapis.com/css?family=Lato:400,400i,700,700i'); @import url('https://fonts.googleapis.com/css?family=Open+Sans:400,400i,700,700i');</style></defs><svg height="422" id="kdtyt5065" overflow="visible" viewBox="0 0 197 211" width="394"><path d="M157.644 108.447l-20.26-8.105c2.495-5.803 3.867-12.09 3.867-18.467C141.25 56.028 120.223 35 94.376 35S47.5 56.028 47.5 81.875 68.53 128.75 94.376 128.75c6.377 0 12.665-1.373 18.47-3.87l8.103 20.26a3.75 3.75 0 0 0 3.483 2.358h.1c1.573-.048 2.95-1.073 3.448-2.564l7.363-22.086 22.086-7.365c1.492-.494 2.516-1.87 2.562-3.446s-.893-3.007-2.354-3.593zM94.376 121.25C72.665 121.25 55 103.588 55 81.875S72.665 42.5 94.376 42.5s39.375 17.663 39.375 39.375c0 5.422-1.182 10.765-3.328 15.683L104.61 87.233c-1.395-.553-2.987-.23-4.045.83a3.75 3.75 0 0 0-.831 4.043l10.325 25.815c-4.918 2.145-10.26 3.33-15.684 3.33zm36.824-4.922a3.74 3.74 0 0 0-2.371 2.369l-4.72 14.154-14.162-35.405 35.403 14.16-14.152 4.72z" fill-rule="nonzero" stroke="none" fill="#000" id="ke19bk83g8"/><path fill="none" d="M90 15L50 25l30 45z" stroke="none" id="ke19cfiavi"/></svg></svg>