<svg xmlns="http://www.w3.org/2000/svg" overflow="visible" x="500.5" y="500.5"><defs><style>@import url('https://fonts.googleapis.com/css?family=Roboto+Condensed:400,400i,700,700i'); @import url('https://fonts.googleapis.com/css?family=Roboto:400,400i,700,700i'); @import url('https://fonts.googleapis.com/css?family=Cousine:400,400i,700,700i'); @import url('https://fonts.googleapis.com/css?family=Anonymous+Pro:400,400i,700,700i'); @import url('https://fonts.googleapis.com/css?family=Lato:400,400i,700,700i'); @import url('https://fonts.googleapis.com/css?family=Open+Sans:400,400i,700,700i');</style></defs><svg height="200" overflow="visible" viewBox="0 0 25 25" width="200"><path d="M8.398 19.34a.31.31 0 0 0 .268-.268l.627-4.8 4.812-.628a.31.31 0 0 0 .268-.268L15 8.554l4.814-.63a.31.31 0 0 0 .268-.268l.66-5.05a.31.31 0 1 0-.616-.081l-.63 4.814-4.814.63a.31.31 0 0 0-.268.268l-.627 4.812-4.812.628a.31.31 0 0 0-.268.268l-.627 4.8-4.8.626a.31.31 0 1 0 .08.616l5.048-.657z"/></svg></svg>