<svg id="draw.id" overflow="visible" v:layers="{&quot;default&quot;:{&quot;name&quot;:&quot;Default&quot;,&quot;print&quot;:1,&quot;display&quot;:1,&quot;publish&quot;:1}}" v:ver="3" x="500.5" xmlns="http://www.w3.org/2000/svg" xmlns:v="http://vecta.io" xmlns:xlink="http://www.w3.org/1999/xlink" y="500.5" v:stencils="{&quot;0&quot;:{&quot;id&quot;:&quot;stencil_65&quot;,&quot;expand&quot;:0,&quot;show_name&quot;:1}}"><style xmlns="http://www.w3.org/1999/xhtml"><![CDATA[#draw\.id{stroke:#000;stroke-linecap:round;stroke-linejoin:round;fill:#fff;fill-rule:evenodd;font-family:Roboto;font-size:14px;text-anchor:middle}#draw\.id text{stroke:none}]]></style><defs><style type="text/css">@import url('https://fonts.googleapis.com/css?family=Roboto+Condensed:400,400i,700,700i');@import url('https://fonts.googleapis.com/css?family=Roboto:400,400i,700,700i');@import url('https://fonts.googleapis.com/css?family=Cousine:400,400i,700,700i');@import url('https://fonts.googleapis.com/css?family=Anonymous+Pro:400,400i,700,700i');@import url('https://fonts.googleapis.com/css?family=Lato:400,400i,700,700i');@import url('https://fonts.googleapis.com/css?family=Open+Sans:400,400i,700,700i');</style></defs><title xmlns="http://www.w3.org/1999/xhtml">Untitled drawing</title><desc xmlns="http://www.w3.org/1999/xhtml"></desc><svg height="200" id="kdtyt5065" overflow="visible" v:setup="{&quot;paper&quot;:&quot;CUSTOM&quot;,&quot;unit&quot;:&quot;px&quot;,&quot;scale&quot;:{&quot;from&quot;:&quot;1&quot;,&quot;to&quot;:&quot;1&quot;},&quot;width&quot;:&quot;25 px&quot;,&quot;height&quot;:&quot;25 px&quot;,&quot;margin&quot;:{&quot;top&quot;:&quot;0&quot;,&quot;bottom&quot;:&quot;0&quot;,&quot;left&quot;:&quot;0&quot;,&quot;right&quot;:&quot;0&quot;},&quot;orient&quot;:0}" viewBox="0 0 25 25" width="200"><g id="ke1m3k7zfy" transform="translate(0.5513491637513486 10.362869553049656) rotate(315 12.418168811548275 1.8627911753801154)" class=""><path d="M 4.154899140197494 3.661082128498641 C 4.266474774079714 3.746887675415708 4.42201114454955 3.746887675415708 4.5335867784317685 3.661082128498641 L 8.379075502412848 0.702228681762031 L 12.22608208767428 3.661082128498641 C 12.28188569510986 3.703984901957176 12.348742648670184 3.7255073459115273 12.415441697285882 3.7255073459115273 C 12.482140745901573 3.7255073459115273 12.548966118472972 3.703984901957176 12.604769725908557 3.661082128498641 L 16.450418328646094 0.702228681762031 L 20.298940801376062 3.6612400334432826 C 20.41051643525828 3.7470297898658833 20.565736995838847 3.7470297898658833 20.677312629721058 3.6612400334432826 L 24.715036807117997 0.5567034847823357 C 24.85102454544146 0.4521072494531786 24.876478822517345 0.2571578048013422 24.77204049213281 0.12134376191697092 C 24.667128446914386 -0.014786090856679123 24.472494812151833 -0.040098253482379255 24.33666497877299 0.0643400769021378 L 20.48814250604303 3.023509333528026 L 16.639588452324123 0.0643400769021378 C 16.528044399430833 -0.021465470014926873 16.37266593390564 -0.021307565070287422 16.261090300023408 0.06449798184677726 L 12.415441697285882 3.023351428583386 L 8.56840353103552 0.06449798184677726 C 8.4568278971533 -0.021307565070287422 8.301323107672394 -0.021307565070287422 8.189747473790177 0.06449798184677726 L 4.3442271688201695 3.023351428583386 L 0.49981022465081876 0.06449798184677726 C 0.36426462017233524 -0.039498214692749424 0.16903094662014756 -0.014786090856679123 0.06443471129099108 0.1211858569723316 C -0.04016152403816537 0.2570156903511667 -0.014707246962289719 0.4519493445085394 0.12112258641654544 0.5565455798376958 L 4.154899140197494 3.661082128498641 Z" stroke="none" stroke-linejoin="miter" stroke-linecap="butt" fill="#000000" fill-rule="nonzero" stroke-width="1.1999981594099371"/></g></svg></svg>